<?xml version="1.0" encoding="utf-8"?>
<!-- Generator: Adobe Illustrator 24.3.0, SVG Export Plug-In . SVG Version: 6.00 Build 0)  -->
<svg version="1.1" id="Layer_1" xmlns="http://www.w3.org/2000/svg" xmlns:xlink="http://www.w3.org/1999/xlink" x="0px" y="0px"
	 viewBox="0 0 182 305" style="enable-background:new 0 0 182 305;" xml:space="preserve">
<style type="text/css">
	.st0{fill-rule:evenodd;clip-rule:evenodd;fill:#242424;}
	.st1{fill-rule:evenodd;clip-rule:evenodd;fill:#C95E20;}
	.st2{clip-path:url(#SVGID_2_);}
	.st3{clip-path:url(#SVGID_4_);}
	.st4{fill-rule:evenodd;clip-rule:evenodd;fill:#733612;}
	.st5{fill:#FFFFFF;}
</style>
<g>
	<g>
		<path class="st0" d="M141.1,296.1l25.1-203.6c0.1-0.6,0-1.2-0.2-1.7s-0.6-1-1.2-1.5c-0.6-0.5-1.2-0.8-1.8-1s-1.4-0.3-2.2-0.3H21.4
			c-0.9,0-1.6,0.1-2.2,0.3c-0.6,0.2-1.3,0.6-1.8,1c-0.6,0.5-1,1-1.2,1.5c-0.2,0.5-0.3,1.1-0.2,1.7l25,203.6c0.3,2.5,1.8,4.7,4.1,6.3
			c2.3,1.6,5.3,2.5,8.7,2.5h74.4c3.3,0,6.4-0.9,8.7-2.5S140.7,298.6,141.1,296.1z"/>
	</g>
	<g>
		<path class="st1" d="M7.5,53.6h166.9c4.1,0,7.5,3.4,7.5,7.5v15c0,4.1-3.4,7.5-7.5,7.5H7.5c-4.1,0-7.5-3.4-7.5-7.5v-15
			C0,57,3.4,53.6,7.5,53.6z"/>
	</g>
	<g>
		<path class="st1" d="M148.4,9.8h-7.8L136.8,0H128l-4,9.8H33.6c-5.6,0-10.1,4.5-10.1,10v20.1c0,5.5,4.5,10,10.1,10h114.9
			c5.6,0,10.1-4.5,10.1-10V19.8C158.5,14.3,154,9.8,148.4,9.8z"/>
	</g>
	<g>
		<g>
			<defs>
				
					<rect id="SVGID_1_" x="59.8" y="174.1" transform="matrix(0.9911 -0.1333 0.1333 0.9911 -25.5079 12.0038)" width="34.2" height="44.8"/>
			</defs>
			<clipPath id="SVGID_2_">
				<use xlink:href="#SVGID_1_"  style="overflow:visible;"/>
			</clipPath>
			<g class="st2">
				<g>
					<path class="st1" d="M69.3,218.2c1.1,0.6,2.3,0.9,3.5,1c-0.8-0.9-1.6-2-2.4-3.2c-1.6-2.9-2.2-5.2-2.3-8.3
						c0-5.9,1.9-10.3,4.5-15.1c2.5-4.3,5.2-8.1,8.1-12c0.9-1.4,1.9-2.7,2.9-4.1c0.2-0.4,0.4-0.8,0.6-1.2c0.1-0.3,0.1-0.2,0.2,0.1
						c0.2,0.1,0-0.4-0.4-1c-7.9-3.4-17.5,3.2-21.6,14.9C58.1,201.5,61.2,214.3,69.3,218.2z M73.4,219.3c-0.9-1.1-1.6-2.2-2.3-3.6
						c-1.3-2.8-1.6-4.9-1.4-7.8c0.7-5.4,3-9.2,5.9-13.4c3-3.7,5.8-7.6,9.3-10.8c1.2-1.4,2.4-2.8,3.5-4.2c0.1-0.1,0.4-0.6,0.7-1.1
						c4.5,5.7,5.7,15.7,2.4,25.1C88,213.6,80.5,219.8,73.4,219.3z"/>
				</g>
			</g>
		</g>
	</g>
	<g>
		<g>
			<defs>
				<polygon id="SVGID_3_" points="114.7,178.3 96.8,185.7 107.2,210.8 125,203.4 				"/>
			</defs>
			<clipPath id="SVGID_4_">
				<use xlink:href="#SVGID_3_"  style="overflow:visible;"/>
			</clipPath>
			<g class="st3">
				<g>
					<path class="st4" d="M121.1,203.8c-0.4,0.6-0.9,1.1-1.4,1.6c0.1-0.7,0.2-1.5,0.2-2.4c-0.1-2-0.5-3.4-1.4-5
						c-1.8-3.1-4-4.9-6.7-6.6c-2.5-1.6-4.9-2.8-7.5-4c-0.8-0.5-1.8-0.9-2.6-1.3c-0.2-0.1-0.4-0.3-0.7-0.4c-0.1-0.1-0.1-0.1-0.1,0.1
						c-0.1,0.1-0.1-0.2-0.1-0.7c2.9-4.1,9.5-3.4,15,1.6C121.5,191.7,123.9,199.4,121.1,203.8z M119.4,205.5c0.1-0.8,0.1-1.6,0-2.6
						c-0.2-1.8-0.7-3.1-1.6-4.5c-1.9-2.6-4.2-4-6.9-5.3c-2.6-1.1-5.1-2.3-7.7-3c-1-0.4-2-0.8-3-1.2c-0.1-0.1-0.4-0.2-0.6-0.4
						c-0.5,4.3,1.9,9.9,6.3,13.9C110.6,206.7,116.1,207.8,119.4,205.5z"/>
				</g>
			</g>
		</g>
	</g>
	<g>
		<path class="st5" d="M53.3,143.7c0.6-1.1,1.5-1.9,2.5-2.5c1.1-0.6,2.3-0.9,3.6-0.9c1.6,0,2.9,0.4,4.1,1.2c1.2,0.8,2,1.9,2.5,3.3
			h-3.2c-0.3-0.7-0.8-1.2-1.4-1.5c-0.6-0.3-1.2-0.5-2-0.5c-0.8,0-1.5,0.2-2.2,0.6c-0.6,0.4-1.1,0.9-1.5,1.6
			c-0.4,0.7-0.5,1.5-0.5,2.4c0,0.9,0.2,1.7,0.5,2.4c0.4,0.7,0.8,1.2,1.5,1.6c0.6,0.4,1.4,0.6,2.2,0.6c0.8,0,1.4-0.2,2-0.5
			c0.6-0.3,1-0.8,1.4-1.5H66c-0.5,1.4-1.3,2.5-2.4,3.3c-1.2,0.8-2.5,1.2-4.1,1.2c-1.3,0-2.5-0.3-3.6-0.9c-1.1-0.6-1.9-1.5-2.5-2.5
			c-0.6-1.1-0.9-2.3-0.9-3.7C52.4,146.1,52.7,144.8,53.3,143.7z"/>
		<path class="st5" d="M78.9,143.4v11.1h-2.8V153c-0.4,0.5-0.8,0.9-1.4,1.1c-0.6,0.3-1.2,0.4-1.9,0.4c-0.9,0-1.6-0.2-2.3-0.5
			c-0.7-0.4-1.2-0.9-1.6-1.6s-0.6-1.6-0.6-2.6v-6.5h2.8v6.1c0,0.9,0.2,1.6,0.7,2c0.4,0.5,1,0.7,1.8,0.7c0.8,0,1.4-0.2,1.8-0.7
			c0.4-0.5,0.7-1.1,0.7-2v-6.1H78.9z"/>
		<path class="st5" d="M84.9,145.7v5.4c0,0.4,0.1,0.6,0.3,0.8c0.2,0.2,0.5,0.2,0.9,0.2h1.3v2.4h-1.8c-2.4,0-3.5-1.1-3.5-3.4v-5.3
			h-1.3v-2.3h1.3v-2.7h2.8v2.7h2.5v2.3H84.9z"/>
		<path class="st5" d="M92.7,145.7v5.4c0,0.4,0.1,0.6,0.3,0.8s0.5,0.2,0.9,0.2h1.3v2.4h-1.8c-2.4,0-3.5-1.1-3.5-3.4v-5.3h-1.3v-2.3
			h1.3v-2.7h2.8v2.7h2.5v2.3H92.7z"/>
		<path class="st5" d="M97.4,141.6c-0.3-0.3-0.5-0.7-0.5-1.2c0-0.5,0.2-0.9,0.5-1.2c0.3-0.3,0.7-0.5,1.2-0.5s0.9,0.2,1.2,0.5
			c0.3,0.3,0.5,0.7,0.5,1.2c0,0.5-0.2,0.9-0.5,1.2c-0.3,0.3-0.7,0.5-1.2,0.5S97.7,141.9,97.4,141.6z M100,143.4v11.1h-2.8v-11.1H100
			z"/>
		<path class="st5" d="M112.1,144.4c0.8,0.8,1.2,2,1.2,3.5v6.5h-2.8v-6.1c0-0.9-0.2-1.6-0.7-2c-0.4-0.5-1-0.7-1.8-0.7
			c-0.8,0-1.4,0.2-1.8,0.7c-0.4,0.5-0.7,1.1-0.7,2v6.1h-2.8v-11.1h2.8v1.4c0.4-0.5,0.9-0.9,1.4-1.1c0.6-0.3,1.2-0.4,1.9-0.4
			C110.2,143.2,111.3,143.6,112.1,144.4z"/>
		<path class="st5" d="M122.5,143.7c0.6,0.3,1.1,0.8,1.5,1.3v-1.6h2.8v11.2c0,1-0.2,1.9-0.6,2.8c-0.4,0.8-1,1.4-1.9,1.9
			c-0.8,0.5-1.8,0.7-3,0.7c-1.6,0-2.9-0.4-3.9-1.1c-1-0.7-1.6-1.7-1.7-3h2.8c0.1,0.5,0.5,0.9,1,1.2c0.5,0.3,1.1,0.5,1.8,0.5
			c0.8,0,1.5-0.2,2-0.7s0.8-1.2,0.8-2.2v-1.7c-0.4,0.5-0.9,1-1.5,1.3c-0.6,0.3-1.4,0.5-2.2,0.5c-0.9,0-1.8-0.2-2.6-0.7
			s-1.4-1.2-1.8-2c-0.4-0.9-0.7-1.9-0.7-3c0-1.1,0.2-2.1,0.7-3c0.4-0.9,1.1-1.5,1.8-2c0.8-0.5,1.6-0.7,2.6-0.7
			C121.1,143.2,121.8,143.3,122.5,143.7z M123.5,147.1c-0.3-0.5-0.6-0.9-1.1-1.1c-0.5-0.3-0.9-0.4-1.5-0.4c-0.5,0-1,0.1-1.4,0.4
			s-0.8,0.6-1.1,1.1c-0.3,0.5-0.4,1.1-0.4,1.7c0,0.7,0.1,1.2,0.4,1.8s0.6,0.9,1.1,1.1c0.4,0.3,0.9,0.4,1.4,0.4c0.5,0,1-0.1,1.5-0.4
			c0.5-0.3,0.8-0.6,1.1-1.1c0.3-0.5,0.4-1.1,0.4-1.8S123.8,147.6,123.5,147.1z"/>
	</g>
	<g>
		<path class="st5" d="M68.8,240.5c0.6-1.1,1.5-1.9,2.5-2.5s2.3-0.9,3.6-0.9c1.6,0,2.9,0.4,4.1,1.2c1.2,0.8,2,1.9,2.5,3.3h-3.2
			c-0.3-0.7-0.8-1.2-1.4-1.5c-0.6-0.3-1.2-0.5-2-0.5c-0.8,0-1.5,0.2-2.2,0.6c-0.6,0.4-1.1,0.9-1.5,1.6s-0.5,1.5-0.5,2.4
			c0,0.9,0.2,1.7,0.5,2.4s0.8,1.2,1.5,1.6c0.6,0.4,1.4,0.6,2.2,0.6c0.8,0,1.4-0.2,2-0.5c0.6-0.3,1-0.8,1.4-1.5h3.2
			c-0.5,1.4-1.3,2.5-2.5,3.3s-2.5,1.2-4.1,1.2c-1.3,0-2.5-0.3-3.6-0.9c-1.1-0.6-1.9-1.5-2.5-2.5c-0.6-1.1-0.9-2.3-0.9-3.7
			C67.9,242.8,68.2,241.5,68.8,240.5z"/>
		<path class="st5" d="M92.4,240.5c0.7,0.4,1.2,0.9,1.5,1.6c0.4,0.7,0.5,1.6,0.5,2.6v6.5h-2.8V245c0-0.9-0.2-1.6-0.7-2
			c-0.4-0.5-1-0.7-1.8-0.7c-0.8,0-1.4,0.2-1.8,0.7c-0.4,0.5-0.7,1.1-0.7,2v6.1h-2.8v-14.8h2.8v5.1c0.4-0.5,0.8-0.9,1.4-1.1
			c0.6-0.3,1.3-0.4,2-0.4C91,239.9,91.7,240.1,92.4,240.5z"/>
		<path class="st5" d="M97.1,242.6c0.4-0.9,1.1-1.5,1.8-2c0.8-0.5,1.6-0.7,2.6-0.7c0.8,0,1.5,0.2,2.2,0.5c0.6,0.3,1.1,0.8,1.5,1.3
			v-1.6h2.8v11.1h-2.8v-1.6c-0.4,0.5-0.9,0.9-1.5,1.3c-0.6,0.3-1.4,0.5-2.2,0.5c-0.9,0-1.8-0.2-2.5-0.7c-0.8-0.5-1.4-1.2-1.8-2
			c-0.4-0.9-0.7-1.9-0.7-3C96.4,244.4,96.6,243.5,97.1,242.6z M104.7,243.9c-0.3-0.5-0.6-0.9-1.1-1.1c-0.5-0.3-0.9-0.4-1.5-0.4
			c-0.5,0-1,0.1-1.4,0.4c-0.4,0.3-0.8,0.6-1.1,1.1c-0.3,0.5-0.4,1.1-0.4,1.7c0,0.7,0.1,1.2,0.4,1.8c0.3,0.5,0.6,0.9,1.1,1.2
			c0.4,0.3,0.9,0.4,1.4,0.4c0.5,0,1-0.1,1.5-0.4s0.8-0.6,1.1-1.1c0.3-0.5,0.4-1.1,0.4-1.8C105.1,244.9,105,244.3,104.7,243.9z"/>
		<path class="st5" d="M110.9,238.3c-0.3-0.3-0.5-0.7-0.5-1.2s0.2-0.9,0.5-1.2c0.3-0.3,0.7-0.5,1.2-0.5s0.9,0.2,1.2,0.5
			c0.3,0.3,0.5,0.7,0.5,1.2s-0.2,0.9-0.5,1.2c-0.3,0.3-0.7,0.5-1.2,0.5S111.2,238.6,110.9,238.3z M113.5,240.1v11.1h-2.8v-11.1
			H113.5z"/>
	</g>
</g>
</svg>
