<?xml version="1.0" encoding="utf-8"?>
<!-- Generator: Adobe Illustrator 24.3.0, SVG Export Plug-In . SVG Version: 6.00 Build 0)  -->
<svg version="1.1" id="Layer_1" xmlns="http://www.w3.org/2000/svg" xmlns:xlink="http://www.w3.org/1999/xlink" x="0px" y="0px"
	 viewBox="0 0 240 36" style="enable-background:new 0 0 240 36;" xml:space="preserve">
<style type="text/css">
	.st0{clip-path:url(#SVGID_2_);}
	.st1{fill-rule:evenodd;clip-rule:evenodd;fill:#C95E20;}
	.st2{clip-path:url(#SVGID_4_);}
	.st3{fill-rule:evenodd;clip-rule:evenodd;fill:#733612;}
</style>
<g>
	<g>
		<g>
			<defs>
				
					<rect id="SVGID_1_" x="1.9" y="1.5" transform="matrix(0.9911 -0.1333 0.1333 0.9911 -2.2577 2.086)" width="25.1" height="32.8"/>
			</defs>
			<clipPath id="SVGID_2_">
				<use xlink:href="#SVGID_1_"  style="overflow:visible;"/>
			</clipPath>
			<g class="st0">
				<path class="st1" d="M8.8,33.9c0.8,0.4,1.7,0.6,2.6,0.8c-0.6-0.7-1.2-1.5-1.7-2.4c-1.2-2.1-1.6-3.8-1.7-6.1
					c0-4.3,1.4-7.5,3.3-11.1c1.8-3.2,3.8-5.9,6-8.8c0.6-1,1.4-2,2.1-3c0.2-0.3,0.3-0.6,0.5-0.9C20,2.2,20,2.2,20,2.5
					c0.1,0,0-0.3-0.3-0.8c-5.9-2.3-12.9,2.5-16,11.1C0.6,21.6,2.9,31,8.8,33.9z M11.9,34.7c-0.6-0.8-1.2-1.6-1.7-2.6
					c-0.9-2-1.2-3.6-1-5.7c0.5-3.9,2.2-6.8,4.3-9.8c2.2-2.7,4.3-5.5,6.8-7.9c0.9-1,1.8-2,2.6-3.1c0.1-0.1,0.3-0.5,0.5-0.8
					c3.3,4.2,4.2,11.5,1.8,18.4C22.5,30.4,17,35,11.9,34.7z"/>
			</g>
		</g>
	</g>
</g>
<g>
	<g>
		<g>
			<defs>
				
					<rect id="SVGID_3_" x="32.4" y="6.6" transform="matrix(0.9242 -0.3818 0.3818 0.9242 -3.3213 16.3301)" width="14.2" height="19.9"/>
			</defs>
			<clipPath id="SVGID_4_">
				<use xlink:href="#SVGID_3_"  style="overflow:visible;"/>
			</clipPath>
			<g class="st2">
				<path class="st3" d="M46.9,23.3c-0.3,0.5-0.6,0.8-1,1.1c0.1-0.5,0.1-1.1,0.1-1.7c-0.1-1.5-0.4-2.5-1-3.7c-1.3-2.3-3-3.6-4.9-4.8
					c-1.8-1.1-3.6-2-5.5-2.9c-0.6-0.3-1.3-0.6-1.9-1c-0.2-0.1-0.3-0.2-0.5-0.3c-0.1-0.1-0.1-0.1,0,0.1c0,0.1-0.1-0.2-0.1-0.5
					c2.1-3,7-2.5,11,1.2C47.3,14.5,49,20.1,46.9,23.3z M45.7,24.6c0.1-0.6,0.1-1.2,0-1.9c-0.2-1.3-0.5-2.2-1.2-3.3
					c-1.4-1.9-3.1-2.9-5-3.9c-1.9-0.8-3.7-1.7-5.7-2.2c-0.7-0.3-1.5-0.6-2.2-0.9c-0.1,0-0.3-0.2-0.5-0.3c-0.4,3.2,1.4,7.2,4.6,10.2
					C39.2,25.4,43.3,26.2,45.7,24.6z"/>
			</g>
		</g>
	</g>
</g>
<g>
	<path d="M52.5,10.7c0.9-1.6,2.1-2.8,3.7-3.7c1.6-0.9,3.3-1.3,5.2-1.3c2.3,0,4.2,0.6,5.9,1.7c1.7,1.2,2.9,2.8,3.6,4.8h-4.7
		c-0.5-1-1.1-1.7-2-2.2c-0.8-0.5-1.8-0.7-2.9-0.7c-1.2,0-2.2,0.3-3.1,0.8c-0.9,0.6-1.6,1.3-2.1,2.3c-0.5,1-0.8,2.2-0.8,3.5
		c0,1.3,0.3,2.5,0.8,3.5c0.5,1,1.2,1.8,2.1,2.3c0.9,0.6,2,0.8,3.1,0.8c1.1,0,2.1-0.2,2.9-0.7s1.5-1.2,2-2.2h4.7
		c-0.7,2.1-1.9,3.7-3.6,4.8c-1.7,1.2-3.7,1.7-6,1.7c-1.9,0-3.7-0.4-5.2-1.3s-2.8-2.1-3.7-3.7c-0.9-1.6-1.3-3.3-1.3-5.3
		S51.6,12.3,52.5,10.7z"/>
	<path d="M89.6,10.2v16.1h-4.1v-2c-0.5,0.7-1.2,1.2-2,1.6c-0.8,0.4-1.8,0.6-2.7,0.6c-1.3,0-2.4-0.3-3.3-0.8c-1-0.5-1.7-1.3-2.3-2.3
		s-0.8-2.3-0.8-3.7v-9.4h4.1V19c0,1.3,0.3,2.3,1,2.9s1.5,1,2.6,1c1.1,0,2-0.3,2.6-1s1-1.7,1-2.9v-8.8H89.6z"/>
	<path d="M98.3,13.5v7.8c0,0.5,0.1,0.9,0.4,1.2c0.3,0.2,0.7,0.4,1.3,0.4h1.9v3.4h-2.6c-3.4,0-5.1-1.7-5.1-5v-7.7h-1.9v-3.3h1.9v-4
		h4.1v4h3.6v3.3H98.3z"/>
	<path d="M109.5,13.5v7.8c0,0.5,0.1,0.9,0.4,1.2c0.3,0.2,0.7,0.4,1.3,0.4h1.9v3.4h-2.6c-3.4,0-5.1-1.7-5.1-5v-7.7h-1.9v-3.3h1.9v-4
		h4.1v4h3.6v3.3H109.5z"/>
	<path d="M116.3,7.6c-0.5-0.5-0.7-1-0.7-1.7s0.2-1.2,0.7-1.7c0.5-0.5,1.1-0.7,1.8-0.7c0.7,0,1.3,0.2,1.8,0.7c0.5,0.5,0.7,1,0.7,1.7
		s-0.2,1.2-0.7,1.7c-0.5,0.5-1.1,0.7-1.8,0.7C117.4,8.2,116.8,8,116.3,7.6z M120.1,10.2v16.1h-4.1V10.2H120.1z"/>
	<path d="M137.7,11.7c1.2,1.2,1.8,2.9,1.8,5.1v9.4h-4.1v-8.9c0-1.3-0.3-2.3-1-2.9c-0.6-0.7-1.5-1-2.6-1c-1.1,0-2,0.3-2.7,1
		c-0.6,0.7-1,1.7-1,2.9v8.9h-4.1V10.2h4.1v2c0.5-0.7,1.2-1.2,2.1-1.6c0.8-0.4,1.8-0.6,2.8-0.6C134.9,9.9,136.5,10.5,137.7,11.7z"/>
	<path d="M152.7,10.6c0.9,0.5,1.6,1.1,2.1,1.8v-2.3h4.1v16.2c0,1.5-0.3,2.8-0.9,4c-0.6,1.2-1.5,2.1-2.7,2.8c-1.2,0.7-2.6,1-4.3,1
		c-2.3,0-4.2-0.5-5.6-1.6c-1.5-1.1-2.3-2.5-2.5-4.3h4c0.2,0.7,0.7,1.3,1.4,1.8c0.7,0.4,1.6,0.7,2.6,0.7c1.2,0,2.1-0.4,2.9-1.1
		c0.7-0.7,1.1-1.8,1.1-3.2v-2.5c-0.5,0.8-1.2,1.4-2.2,1.9c-0.9,0.5-2,0.8-3.1,0.8c-1.4,0-2.6-0.3-3.7-1s-2-1.7-2.7-2.9
		c-0.6-1.3-1-2.7-1-4.4c0-1.6,0.3-3.1,1-4.3c0.6-1.3,1.5-2.2,2.6-2.9c1.1-0.7,2.4-1,3.7-1C150.8,9.9,151.8,10.1,152.7,10.6z
		 M154.3,15.7c-0.4-0.7-0.9-1.2-1.6-1.6s-1.4-0.6-2.1-0.6s-1.5,0.2-2.1,0.6c-0.6,0.4-1.2,0.9-1.6,1.6c-0.4,0.7-0.6,1.5-0.6,2.5
		c0,1,0.2,1.8,0.6,2.5s0.9,1.3,1.6,1.7c0.6,0.4,1.3,0.6,2.1,0.6c0.8,0,1.5-0.2,2.1-0.6s1.2-0.9,1.6-1.6c0.4-0.7,0.6-1.6,0.6-2.5
		C154.9,17.2,154.7,16.4,154.3,15.7z"/>
	<path d="M170.2,10.7c0.9-1.6,2.1-2.8,3.7-3.7c1.6-0.9,3.3-1.3,5.2-1.3c2.3,0,4.2,0.6,5.9,1.7c1.7,1.2,2.9,2.8,3.6,4.8H184
		c-0.5-1-1.1-1.7-2-2.2c-0.8-0.5-1.8-0.7-2.9-0.7c-1.2,0-2.2,0.3-3.1,0.8c-0.9,0.6-1.6,1.3-2.1,2.3c-0.5,1-0.8,2.2-0.8,3.5
		c0,1.3,0.3,2.5,0.8,3.5c0.5,1,1.2,1.8,2.1,2.3c0.9,0.6,2,0.8,3.1,0.8c1.1,0,2.1-0.2,2.9-0.7c0.8-0.5,1.5-1.2,2-2.2h4.7
		c-0.7,2.1-1.9,3.7-3.6,4.8s-3.7,1.7-6,1.7c-1.9,0-3.7-0.4-5.2-1.3c-1.6-0.9-2.8-2.1-3.7-3.7c-0.9-1.6-1.3-3.3-1.3-5.3
		S169.3,12.3,170.2,10.7z"/>
	<path d="M204.4,10.7c0.9,0.5,1.7,1.3,2.2,2.3c0.5,1,0.8,2.3,0.8,3.7v9.4h-4.1v-8.9c0-1.3-0.3-2.3-1-2.9c-0.6-0.7-1.5-1-2.6-1
		c-1.1,0-2,0.3-2.7,1c-0.6,0.7-1,1.7-1,2.9v8.9h-4.1V4.8h4.1v7.4c0.5-0.7,1.2-1.2,2.1-1.6c0.9-0.4,1.8-0.6,2.9-0.6
		C202.4,9.9,203.5,10.2,204.4,10.7z"/>
	<path d="M211.2,13.8c0.6-1.3,1.5-2.2,2.6-2.9c1.1-0.7,2.4-1,3.7-1c1.2,0,2.2,0.2,3.1,0.7c0.9,0.5,1.6,1.1,2.2,1.8v-2.3h4.1v16.1
		h-4.1v-2.3c-0.5,0.8-1.2,1.4-2.2,1.9s-2,0.7-3.2,0.7c-1.4,0-2.6-0.3-3.7-1c-1.1-0.7-2-1.7-2.6-2.9c-0.6-1.3-1-2.7-1-4.4
		C210.2,16.5,210.6,15.1,211.2,13.8z M222.3,15.7c-0.4-0.7-0.9-1.2-1.6-1.6s-1.4-0.6-2.1-0.6s-1.5,0.2-2.1,0.6
		c-0.6,0.4-1.2,0.9-1.6,1.6c-0.4,0.7-0.6,1.5-0.6,2.5c0,1,0.2,1.8,0.6,2.5s0.9,1.3,1.6,1.7c0.6,0.4,1.3,0.6,2.1,0.6
		c0.8,0,1.5-0.2,2.1-0.6s1.2-0.9,1.6-1.6c0.4-0.7,0.6-1.6,0.6-2.5C222.9,17.2,222.7,16.4,222.3,15.7z"/>
	<path d="M231.2,7.6c-0.5-0.5-0.7-1-0.7-1.7s0.2-1.2,0.7-1.7c0.5-0.5,1.1-0.7,1.8-0.7c0.7,0,1.3,0.2,1.8,0.7c0.5,0.5,0.7,1,0.7,1.7
		s-0.2,1.2-0.7,1.7c-0.5,0.5-1.1,0.7-1.8,0.7C232.3,8.2,231.7,8,231.2,7.6z M235,10.2v16.1H231V10.2H235z"/>
</g>
</svg>
